<?xml version="1.0" encoding="UTF-8" standalone="no"?>
<svg width="123.55" xmlns="http://www.w3.org/2000/svg" height="123.54">
 <g id="svg_1">
  <path id="svg_3" stroke-width="0" fill="none" d="m15.242 2.918c-7.109 0-12.898 5.789-12.898 12.898v92.828c0 7.117 5.789 12.898 12.898 12.898h92.805c7.133 0 12.922-5.781 12.922-12.898v-92.828c0-7.109-5.789-12.898-12.922-12.898h-92.805z"/>
  <path id="svg_4" d="m18.375 68.449c-2.031 0-3.688 1.656-3.688 3.688 0 2.023 1.656 3.656 3.688 3.656 2.023 0 3.664-1.633 3.664-3.656 0-2.032-1.641-3.688-3.664-3.688z"/>
  <path id="svg_5" d="m72.477 35.762c4.398 0 7.984-3.57 7.984-7.984 0-4.422-3.586-8.008-7.984-8.008-4.414 0-8 3.586-8 8.008 0 4.413 3.585 7.984 8 7.984z"/>
  <path id="svg_6" d="m109.83 105.97l-12.984-15.328s-4.055-23.68-4.055-23.734c0-0.022995-0.609-2.68-0.609-2.68 0.023003 0.022995-1.641-7.477-2.906-13.336 2.023 1.172 3.859 2.227 3.953 2.273 0.102 0.219 6.883 13.133 6.883 13.133 0.516 0.953 1.367 1.664 2.398 1.977 1.047 0.32 2.148 0.219 3.102-0.289 0.945-0.492 1.656-1.344 1.977-2.391 0.336-1.031 0.242-2.125-0.273-3.078l-7.445-14.188s-0.289-0.508-0.68-0.898c-0.539-0.539-1.711-1.203-1.711-1.203l-14.453-8.227c-1.836-0.922-3.859-1.242-5.883-0.805-0.828 0.172-1.609 0.492-2.492 0.977-0.102 0.022995-3.289 1.445-5.148 5.789l-7.422 14.938s-11.297 2.203-11.688 2.273c-0.102 0.02301-0.195 0.047005-0.273 0.094009l-10.555-7.469c-2.375-1.656-2.664-6.641-2.688-6.836-0.297-3.414-2.25-6.641-5.375-8.859-2.828-2-6.25-2.859-9.375-2.344-2.438 0.414-4.516 1.68-5.836 3.539-1.023 1.438-1.562 3.172-1.562 5.031 0 0.022999 0.14801 1.609 0.14801 1.609 0.53899 3.148 2.469 6.078 5.297 8.102 2.859 2.031 6.25 2.883 9.375 2.344l0.734-0.141c0.070007-0.054996 4.758-1.492 7.055 0.070004 0 0.022999 7.898 5.594 10 7.078-0.21901 0.344-0.60901 1.102-0.58601 1.883 0 0.242 0.023003 0.484 0.07 0.734 0.414 2.195 2.562 3.656 4.766 3.219l14.008-2.734s1.203-0.367 1.711-0.734c0.664-0.46101 1.148-1.438 1.148-1.438l3.688-7.422s2.531 11.984 2.578 12.211c-0.289 0.289-11.492 12.18-11.492 12.18l-0.195 0.242c-1.094 1-1.703 2.32-1.703 3.711v25.195c0 2.688 2.195 4.859 4.883 4.859 2.656 0 4.852-2.172 4.852-4.859v-21.047c1.031-1.07 9.617-10.125 11.914-12.523 0.242 1.422 2.461 14.188 2.461 14.188 0.195 1.125 0.734 2.148 1.539 2.977 0 0.022995 15.43 18.242 15.43 18.242 0.859 0.977 2.031 1.586 3.32 1.703 1.297 0.102 2.539-0.312 3.539-1.148 1.125-0.945 1.711-2.344 1.711-3.711-0.001999-1.118-0.37-2.22-1.151-3.149zm-77.008-54.93c-0.852 1.195-2.172 1.977-3.805 2.273-2.297 0.391-4.859-0.273-7.008-1.836-2.172-1.539-3.641-3.734-4.031-6.031l-0.094-1.141c0-1.203 0.312-2.273 0.97699-3.203 2.117-2.977 6.977-3.172 10.836-0.438 3.836 2.735 5.25 7.399 3.125 10.376z"/>
 </g>
</svg>
